<?xml version="1.0" encoding="iso-8859-1"?>
<svg fill="#000000" version="1.1" id="Capa_1" xmlns="http://www.w3.org/2000/svg" xmlns:xlink="http://www.w3.org/1999/xlink" 
	 width="800px" height="800px" viewBox="0 0 161.19 161.189"
	 xml:space="preserve">
<g>
	<g id="KivTwr_1_">
		<g>
			<g>
				<path d="M161.19,55.307c-0.462,0.759-0.939,1.5-1.376,2.277c-1.609,2.839-6.17,3.255-7.8,0.432
					c-1.198-2.077-2.95-2.95-4.864-3.869c-0.559-0.271-1.26-0.457-1.625-0.904c-1.595-1.924-3.788-2.559-6.063-3.13
					c-2.681-0.673-4.824-2.237-6.521-4.385c-2.305,0.645-3.736,2.164-4.631,4.014c-2.722,5.665-6.099,10.92-9.455,16.204
					c-0.995,1.563-1.574,3.166-1.279,5.268c0.508,3.738-0.924,7.251-2.691,10.486c-1.361,2.491-2.945,4.9-5.443,6.535
					c-0.6,0.396-1.077,1.229-1.28,1.95c-0.995,3.52-1.976,7.054-2.772,10.618c-0.681,3.042-1.066,6.145-1.646,9.212
					c-0.314,1.66-0.67,3.325-1.147,4.945c-1.173,4.022-1.086,8.141-1,12.248c0.046,2.311,0.3,4.621,0.619,6.911
					c0.168,1.204,0.727,2.214,1.772,3.144c1.498,1.335,2.615,3.118,3.798,4.773c0.234,0.34,0.031,1,0.031,1.671
					c-2.331,0.553-4.637,0.421-6.927,0.111c-1.127-0.157-1.757-1.057-2.396-1.985c-0.65-0.944-0.427-1.65-0.178-2.682
					c0.33-1.376,0.401-3.047-1.325-3.95c-1.32-0.69-1.447-1.899-1.331-3.234c0.203-2.397,0.335-4.799,0.513-7.196
					c0.127-1.69,0.32-3.371,0.371-5.062c0.035-0.965-0.041-1.965-0.244-2.904c-0.446-2.103-0.568-4.154-0.513-6.338
					c0.066-2.478-0.147-4.956,0.31-7.429c0.046-0.249-0.04-0.523-0.355-0.822c-0.391,2.787-0.762,5.586-1.178,8.373
					c-0.132,0.879-0.233,1.803-0.584,2.6c-1.736,3.941-1.976,8.136-2.016,12.324c-0.03,2.22,0.274,4.449,0.503,6.663
					c0.061,0.599,0.314,1.224,0.624,1.747c1.219,2.025,2.479,4.016,3.818,6.164c-0.781,0.97-2.041,1.051-3.239,1.198
					c-0.792,0.097-1.604,0.021-2.412,0.025c-1.447,0.005-2.864,0.056-3.61-1.625c-0.711-1.6-0.574-2.93,1.152-4.199
					c-0.726-1-1.305-1.97-2.046-2.793c-0.99-1.102-1.351-2.198-0.762-3.651c1.97-4.88,2.016-9.912,1.097-15.021
					c-0.143-0.787-0.143-1.614-0.061-2.412c0.446-4.341,0.975-8.673,1.391-13.015c0.274-2.833,0.539-5.688-0.467-8.638
					c-0.752-0.056-1.468-0.254-2.123-0.147C79.47,90.9,73.151,90.17,66.933,89.017c-3.021-0.563-5.875-2.097-8.768-3.28
					c-2.892-1.193-5.72-2.534-8.604-3.74c-3.349-1.399-5.327-0.718-7.129,2.486c-0.698,1.233-1.11,2.635-1.77,3.899
					c-1.485,2.849-2.917,5.743-4.611,8.476c-2.778,4.483-4.405,9.363-5.33,14.492c-0.426,2.356-0.437,4.789-0.609,7.186
					c-0.167,2.356,0.526,4.575,1.013,6.855c0.678,3.153,1.104,6.281,3.983,8.419c0.785,0.584,1.14,1.768,1.653,2.696
					c0.66,1.184,0.307,2.062-1.054,2.433c-2.262,0.614-4.441-0.157-6.568-0.701c-1.325-0.345-2.059-2.482-1.534-4.153
					c0.482-1.549,0.317-2.605-1.259-3.26c-1.143-0.478-1.112-1.493-1.112-2.499c0.01-3.311-0.025-6.621,0.025-9.938
					c0.043-2.646-0.525-5.154-1.574-7.551c-1.01-2.3-1.571-4.677-1.462-7.271c-1.683,4.626-5.007,8.525-5.761,13.481
					c-0.696,4.591-1.092,9.227-0.818,13.879c0.099,1.665,0.881,3.047,1.945,4.321c1.363,1.619,2.638,3.306,3.943,4.961
					c-2.247,1.812-6.677,2.239-8.762,1.011c-1.647-0.98-2.193-2.453-1.435-4.286c0.442-1.071,0.785-2.147-0.193-2.96
					c-2.023-1.676-1.592-3.88-1.363-5.957c0.635-5.708,0.66-11.39-0.031-17.093c-0.203-1.676-0.188-3.412-0.005-5.088
					c0.099-0.909,0.66-1.828,1.206-2.615c1.122-1.604,2.331-3.158,3.577-4.672c1.945-2.351,2.752-5.194,3.522-8.038
					c0.426-1.579,0.218-3.128-0.371-4.718c-1.653-4.514-3.141-9.084-4.758-13.837c0,1.145,0.089,2.163-0.02,3.168
					c-0.125,1.143-0.135,2.453-0.716,3.351c-0.917,1.417-0.952,2.856-0.886,4.37c0.137,3.023,0.173,6.07,0.541,9.077
					c0.396,3.239-1.028,5.702-2.854,8.078c-0.193,0.254-0.604,0.381-0.937,0.452c-1.076,0.239-1.409,1.052-1.528,1.971
					c-0.238,1.849-0.416,3.717-0.602,5.57c-0.094,0.935-0.167,1.863-0.256,2.89c-1.709-0.046-2.427-1.092-2.968-2.011
					c-0.713-1.209-1.462-2.615-1.513-3.961c-0.14-3.474,0.036-6.962,0.193-10.436c0.213-4.728,0.706-9.46-0.386-14.142
					C0.79,79.485,0.338,78.701,0,77.889c0-4.659,0-9.313,0-13.972c0.155-0.312,0.432-0.615,0.452-0.935
					c0.475-8.231,8.3-14.493,15.589-15.247c3.09-0.322,6.203-0.802,9.184-1.638c4.575-1.3,9.239-1.95,13.929-2.554
					c1.051-0.134,2.176-0.14,3.209,0.063c3.672,0.716,7.343,1.475,10.981,2.354c5.393,1.305,10.78,2.409,16.381,2.396
					c4.923-0.005,9.275-1.435,13.228-4.304c1.295-0.942,2.585-1.95,4.307-1.998c2.401-0.066,4.813,0.01,7.2-0.233
					c3.22-0.328,6.429-0.833,8.358-3.989c0.214-0.357,0.63-0.617,0.995-0.868c3.372-2.318,6.186-5.319,9.734-7.477
					c4.007-2.438,8.141-4.517,12.64-5.703c2.823-0.744,5.794-0.937,8.714-1.28c0.954-0.114,1.619-0.38,2.224-1.196
					c0.849-1.14,1.849-2.196,2.925-3.12c1.021-0.879,2.225-1.493,3.718-0.76c-0.371,1.483-0.731,2.897-1.128,4.467
					c3.494,0.183,3.271-3.321,5.094-4.611c0.243,0.274,0.437,0.394,0.457,0.536c0.076,0.53,0.233,1.106,0.096,1.589
					c-1.01,3.532-0.396,6.86,1.107,10.098c0.254,0.554,0.427,1.28,0.863,1.592c1.533,1.062,1.717,2.58,1.849,4.228
					c0.173,2.123,0.335,4.238,1.478,6.178c2.077,3.542,4.483,6.807,7.606,9.501C161.19,52.44,161.19,53.87,161.19,55.307z"/>
			</g>
		</g>
	</g>
</g>
</svg>